<?xml version="1.0" encoding="UTF-8" standalone="no"?>
<!DOCTYPE svg PUBLIC "-//W3C//DTD SVG 1.1//EN"
 "http://www.w3.org/Graphics/SVG/1.1/DTD/svg11.dtd">
<!-- Generated by graphviz version 2.40.1 (20161225.0304)
 -->
<!-- Title: Tree Pages: 1 -->
<svg width="770pt" height="552pt"
 viewBox="0.00 0.00 769.50 552.00" xmlns="http://www.w3.org/2000/svg" xmlns:xlink="http://www.w3.org/1999/xlink">
<g id="graph0" class="graph" transform="scale(1 1) rotate(0) translate(4 548)">
<title>Tree</title>
<polygon fill="#ffffff" stroke="transparent" points="-4,4 -4,-548 765.5,-548 765.5,4 -4,4"/>
<!-- 0 -->
<g id="node1" class="node">
<title>0</title>
<path fill="#eca36e" stroke="#000000" d="M587.5,-544C587.5,-544 439.5,-544 439.5,-544 433.5,-544 427.5,-538 427.5,-532 427.5,-532 427.5,-473 427.5,-473 427.5,-467 433.5,-461 439.5,-461 439.5,-461 587.5,-461 587.5,-461 593.5,-461 599.5,-467 599.5,-473 599.5,-473 599.5,-532 599.5,-532 599.5,-538 593.5,-544 587.5,-544"/>
<text text-anchor="middle" x="513.5" y="-528.8" font-family="Helvetica,sans-Serif" font-size="14.00" fill="#000000">doctor_recc_h1n1 &lt;= 0.5</text>
<text text-anchor="middle" x="513.5" y="-513.8" font-family="Helvetica,sans-Serif" font-size="14.00" fill="#000000">gini = 0.334</text>
<text text-anchor="middle" x="513.5" y="-498.8" font-family="Helvetica,sans-Serif" font-size="14.00" fill="#000000">samples = 17409</text>
<text text-anchor="middle" x="513.5" y="-483.8" font-family="Helvetica,sans-Serif" font-size="14.00" fill="#000000">value = [13717, 3692]</text>
<text text-anchor="middle" x="513.5" y="-468.8" font-family="Helvetica,sans-Serif" font-size="14.00" fill="#000000">class = 0</text>
</g>
<!-- 1 -->
<g id="node2" class="node">
<title>1</title>
<path fill="#e99457" stroke="#000000" d="M499,-425C499,-425 352,-425 352,-425 346,-425 340,-419 340,-413 340,-413 340,-354 340,-354 340,-348 346,-342 352,-342 352,-342 499,-342 499,-342 505,-342 511,-348 511,-354 511,-354 511,-413 511,-413 511,-419 505,-425 499,-425"/>
<text text-anchor="middle" x="425.5" y="-409.8" font-family="Helvetica,sans-Serif" font-size="14.00" fill="#000000">seasonal_vaccine &lt;= 0.5</text>
<text text-anchor="middle" x="425.5" y="-394.8" font-family="Helvetica,sans-Serif" font-size="14.00" fill="#000000">gini = 0.228</text>
<text text-anchor="middle" x="425.5" y="-379.8" font-family="Helvetica,sans-Serif" font-size="14.00" fill="#000000">samples = 13857</text>
<text text-anchor="middle" x="425.5" y="-364.8" font-family="Helvetica,sans-Serif" font-size="14.00" fill="#000000">value = [12036, 1821]</text>
<text text-anchor="middle" x="425.5" y="-349.8" font-family="Helvetica,sans-Serif" font-size="14.00" fill="#000000">class = 0</text>
</g>
<!-- 0&#45;&gt;1 -->
<g id="edge1" class="edge">
<title>0&#45;&gt;1</title>
<path fill="none" stroke="#000000" d="M482.7219,-460.8796C476.1949,-452.0534 469.2401,-442.6485 462.5092,-433.5466"/>
<polygon fill="#000000" stroke="#000000" points="465.1695,-431.2574 456.4095,-425.2981 459.5412,-435.4195 465.1695,-431.2574"/>
<text text-anchor="middle" x="452.7068" y="-446.3224" font-family="Helvetica,sans-Serif" font-size="14.00" fill="#000000">True</text>
</g>
<!-- 12 -->
<g id="node13" class="node">
<title>12</title>
<path fill="#ebf5fc" stroke="#000000" d="M661.5,-417.5C661.5,-417.5 541.5,-417.5 541.5,-417.5 535.5,-417.5 529.5,-411.5 529.5,-405.5 529.5,-405.5 529.5,-361.5 529.5,-361.5 529.5,-355.5 535.5,-349.5 541.5,-349.5 541.5,-349.5 661.5,-349.5 661.5,-349.5 667.5,-349.5 673.5,-355.5 673.5,-361.5 673.5,-361.5 673.5,-405.5 673.5,-405.5 673.5,-411.5 667.5,-417.5 661.5,-417.5"/>
<text text-anchor="middle" x="601.5" y="-402.3" font-family="Helvetica,sans-Serif" font-size="14.00" fill="#000000">gini = 0.499</text>
<text text-anchor="middle" x="601.5" y="-387.3" font-family="Helvetica,sans-Serif" font-size="14.00" fill="#000000">samples = 3552</text>
<text text-anchor="middle" x="601.5" y="-372.3" font-family="Helvetica,sans-Serif" font-size="14.00" fill="#000000">value = [1681, 1871]</text>
<text text-anchor="middle" x="601.5" y="-357.3" font-family="Helvetica,sans-Serif" font-size="14.00" fill="#000000">class = 1</text>
</g>
<!-- 0&#45;&gt;12 -->
<g id="edge12" class="edge">
<title>0&#45;&gt;12</title>
<path fill="none" stroke="#000000" d="M544.2781,-460.8796C552.6536,-449.5536 561.7338,-437.2748 570.1411,-425.9058"/>
<polygon fill="#000000" stroke="#000000" points="572.9925,-427.9364 576.1242,-417.8149 567.3643,-423.7743 572.9925,-427.9364"/>
<text text-anchor="middle" x="579.8269" y="-438.8392" font-family="Helvetica,sans-Serif" font-size="14.00" fill="#000000">False</text>
</g>
<!-- 2 -->
<g id="node3" class="node">
<title>2</title>
<path fill="#e68742" stroke="#000000" d="M386,-306C386,-306 243,-306 243,-306 237,-306 231,-300 231,-294 231,-294 231,-235 231,-235 231,-229 237,-223 243,-223 243,-223 386,-223 386,-223 392,-223 398,-229 398,-235 398,-235 398,-294 398,-294 398,-300 392,-306 386,-306"/>
<text text-anchor="middle" x="314.5" y="-290.8" font-family="Helvetica,sans-Serif" font-size="14.00" fill="#000000">health_insurance &lt;= 0.5</text>
<text text-anchor="middle" x="314.5" y="-275.8" font-family="Helvetica,sans-Serif" font-size="14.00" fill="#000000">gini = 0.083</text>
<text text-anchor="middle" x="314.5" y="-260.8" font-family="Helvetica,sans-Serif" font-size="14.00" fill="#000000">samples = 8108</text>
<text text-anchor="middle" x="314.5" y="-245.8" font-family="Helvetica,sans-Serif" font-size="14.00" fill="#000000">value = [7756, 352]</text>
<text text-anchor="middle" x="314.5" y="-230.8" font-family="Helvetica,sans-Serif" font-size="14.00" fill="#000000">class = 0</text>
</g>
<!-- 1&#45;&gt;2 -->
<g id="edge2" class="edge">
<title>1&#45;&gt;2</title>
<path fill="none" stroke="#000000" d="M386.6776,-341.8796C378.1927,-332.7832 369.1346,-323.0722 360.4032,-313.7116"/>
<polygon fill="#000000" stroke="#000000" points="362.8686,-311.2233 353.4881,-306.2981 357.7497,-315.9981 362.8686,-311.2233"/>
</g>
<!-- 7 -->
<g id="node8" class="node">
<title>7</title>
<path fill="#eeac7d" stroke="#000000" d="M645,-306C645,-306 428,-306 428,-306 422,-306 416,-300 416,-294 416,-294 416,-235 416,-235 416,-229 422,-223 428,-223 428,-223 645,-223 645,-223 651,-223 657,-229 657,-235 657,-235 657,-294 657,-294 657,-300 651,-306 645,-306"/>
<text text-anchor="middle" x="536.5" y="-290.8" font-family="Helvetica,sans-Serif" font-size="14.00" fill="#000000">opinion_h1n1_vacc_effective &lt;= 4.5</text>
<text text-anchor="middle" x="536.5" y="-275.8" font-family="Helvetica,sans-Serif" font-size="14.00" fill="#000000">gini = 0.38</text>
<text text-anchor="middle" x="536.5" y="-260.8" font-family="Helvetica,sans-Serif" font-size="14.00" fill="#000000">samples = 5749</text>
<text text-anchor="middle" x="536.5" y="-245.8" font-family="Helvetica,sans-Serif" font-size="14.00" fill="#000000">value = [4280, 1469]</text>
<text text-anchor="middle" x="536.5" y="-230.8" font-family="Helvetica,sans-Serif" font-size="14.00" fill="#000000">class = 0</text>
</g>
<!-- 1&#45;&gt;7 -->
<g id="edge7" class="edge">
<title>1&#45;&gt;7</title>
<path fill="none" stroke="#000000" d="M464.3224,-341.8796C472.8073,-332.7832 481.8654,-323.0722 490.5968,-313.7116"/>
<polygon fill="#000000" stroke="#000000" points="493.2503,-315.9981 497.5119,-306.2981 488.1314,-311.2233 493.2503,-315.9981"/>
</g>
<!-- 3 -->
<g id="node4" class="node">
<title>3</title>
<path fill="#e6853f" stroke="#000000" d="M229,-187C229,-187 12,-187 12,-187 6,-187 0,-181 0,-175 0,-175 0,-116 0,-116 0,-110 6,-104 12,-104 12,-104 229,-104 229,-104 235,-104 241,-110 241,-116 241,-116 241,-175 241,-175 241,-181 235,-187 229,-187"/>
<text text-anchor="middle" x="120.5" y="-171.8" font-family="Helvetica,sans-Serif" font-size="14.00" fill="#000000">opinion_h1n1_vacc_effective &lt;= 3.5</text>
<text text-anchor="middle" x="120.5" y="-156.8" font-family="Helvetica,sans-Serif" font-size="14.00" fill="#000000">gini = 0.054</text>
<text text-anchor="middle" x="120.5" y="-141.8" font-family="Helvetica,sans-Serif" font-size="14.00" fill="#000000">samples = 4940</text>
<text text-anchor="middle" x="120.5" y="-126.8" font-family="Helvetica,sans-Serif" font-size="14.00" fill="#000000">value = [4803, 137]</text>
<text text-anchor="middle" x="120.5" y="-111.8" font-family="Helvetica,sans-Serif" font-size="14.00" fill="#000000">class = 0</text>
</g>
<!-- 2&#45;&gt;3 -->
<g id="edge3" class="edge">
<title>2&#45;&gt;3</title>
<path fill="none" stroke="#000000" d="M246.6482,-222.8796C230.6989,-213.0962 213.5904,-202.6019 197.2802,-192.5971"/>
<polygon fill="#000000" stroke="#000000" points="198.6677,-189.3422 188.3135,-187.0969 195.0075,-195.3091 198.6677,-189.3422"/>
</g>
<!-- 6 -->
<g id="node7" class="node">
<title>6</title>
<path fill="#e78a47" stroke="#000000" d="M383.5,-179.5C383.5,-179.5 271.5,-179.5 271.5,-179.5 265.5,-179.5 259.5,-173.5 259.5,-167.5 259.5,-167.5 259.5,-123.5 259.5,-123.5 259.5,-117.5 265.5,-111.5 271.5,-111.5 271.5,-111.5 383.5,-111.5 383.5,-111.5 389.5,-111.5 395.5,-117.5 395.5,-123.5 395.5,-123.5 395.5,-167.5 395.5,-167.5 395.5,-173.5 389.5,-179.5 383.5,-179.5"/>
<text text-anchor="middle" x="327.5" y="-164.3" font-family="Helvetica,sans-Serif" font-size="14.00" fill="#000000">gini = 0.127</text>
<text text-anchor="middle" x="327.5" y="-149.3" font-family="Helvetica,sans-Serif" font-size="14.00" fill="#000000">samples = 3168</text>
<text text-anchor="middle" x="327.5" y="-134.3" font-family="Helvetica,sans-Serif" font-size="14.00" fill="#000000">value = [2953, 215]</text>
<text text-anchor="middle" x="327.5" y="-119.3" font-family="Helvetica,sans-Serif" font-size="14.00" fill="#000000">class = 0</text>
</g>
<!-- 2&#45;&gt;6 -->
<g id="edge6" class="edge">
<title>2&#45;&gt;6</title>
<path fill="none" stroke="#000000" d="M319.0468,-222.8796C320.212,-212.2134 321.4695,-200.7021 322.6494,-189.9015"/>
<polygon fill="#000000" stroke="#000000" points="326.1445,-190.1359 323.7513,-179.8149 319.1859,-189.3757 326.1445,-190.1359"/>
</g>
<!-- 4 -->
<g id="node5" class="node">
<title>4</title>
<path fill="#e5833c" stroke="#000000" d="M132.5,-68C132.5,-68 28.5,-68 28.5,-68 22.5,-68 16.5,-62 16.5,-56 16.5,-56 16.5,-12 16.5,-12 16.5,-6 22.5,0 28.5,0 28.5,0 132.5,0 132.5,0 138.5,0 144.5,-6 144.5,-12 144.5,-12 144.5,-56 144.5,-56 144.5,-62 138.5,-68 132.5,-68"/>
<text text-anchor="middle" x="80.5" y="-52.8" font-family="Helvetica,sans-Serif" font-size="14.00" fill="#000000">gini = 0.025</text>
<text text-anchor="middle" x="80.5" y="-37.8" font-family="Helvetica,sans-Serif" font-size="14.00" fill="#000000">samples = 1787</text>
<text text-anchor="middle" x="80.5" y="-22.8" font-family="Helvetica,sans-Serif" font-size="14.00" fill="#000000">value = [1764, 23]</text>
<text text-anchor="middle" x="80.5" y="-7.8" font-family="Helvetica,sans-Serif" font-size="14.00" fill="#000000">class = 0</text>
</g>
<!-- 3&#45;&gt;4 -->
<g id="edge4" class="edge">
<title>3&#45;&gt;4</title>
<path fill="none" stroke="#000000" d="M105.6055,-103.9815C102.5392,-95.4342 99.3013,-86.4086 96.2072,-77.7839"/>
<polygon fill="#000000" stroke="#000000" points="99.4631,-76.4944 92.7919,-68.2637 92.8743,-78.8582 99.4631,-76.4944"/>
</g>
<!-- 5 -->
<g id="node6" class="node">
<title>5</title>
<path fill="#e68640" stroke="#000000" d="M286.5,-68C286.5,-68 174.5,-68 174.5,-68 168.5,-68 162.5,-62 162.5,-56 162.5,-56 162.5,-12 162.5,-12 162.5,-6 168.5,0 174.5,0 174.5,0 286.5,0 286.5,0 292.5,0 298.5,-6 298.5,-12 298.5,-12 298.5,-56 298.5,-56 298.5,-62 292.5,-68 286.5,-68"/>
<text text-anchor="middle" x="230.5" y="-52.8" font-family="Helvetica,sans-Serif" font-size="14.00" fill="#000000">gini = 0.07</text>
<text text-anchor="middle" x="230.5" y="-37.8" font-family="Helvetica,sans-Serif" font-size="14.00" fill="#000000">samples = 3153</text>
<text text-anchor="middle" x="230.5" y="-22.8" font-family="Helvetica,sans-Serif" font-size="14.00" fill="#000000">value = [3039, 114]</text>
<text text-anchor="middle" x="230.5" y="-7.8" font-family="Helvetica,sans-Serif" font-size="14.00" fill="#000000">class = 0</text>
</g>
<!-- 3&#45;&gt;5 -->
<g id="edge5" class="edge">
<title>3&#45;&gt;5</title>
<path fill="none" stroke="#000000" d="M161.4599,-103.9815C170.6176,-94.6989 180.3319,-84.8522 189.4915,-75.5677"/>
<polygon fill="#000000" stroke="#000000" points="192.1658,-77.8406 196.6973,-68.2637 187.1826,-72.9244 192.1658,-77.8406"/>
</g>
<!-- 8 -->
<g id="node9" class="node">
<title>8</title>
<path fill="#eb9d65" stroke="#000000" d="M595,-187C595,-187 452,-187 452,-187 446,-187 440,-181 440,-175 440,-175 440,-116 440,-116 440,-110 446,-104 452,-104 452,-104 595,-104 595,-104 601,-104 607,-110 607,-116 607,-116 607,-175 607,-175 607,-181 601,-187 595,-187"/>
<text text-anchor="middle" x="523.5" y="-171.8" font-family="Helvetica,sans-Serif" font-size="14.00" fill="#000000">health_insurance &lt;= 0.5</text>
<text text-anchor="middle" x="523.5" y="-156.8" font-family="Helvetica,sans-Serif" font-size="14.00" fill="#000000">gini = 0.298</text>
<text text-anchor="middle" x="523.5" y="-141.8" font-family="Helvetica,sans-Serif" font-size="14.00" fill="#000000">samples = 4004</text>
<text text-anchor="middle" x="523.5" y="-126.8" font-family="Helvetica,sans-Serif" font-size="14.00" fill="#000000">value = [3275, 729]</text>
<text text-anchor="middle" x="523.5" y="-111.8" font-family="Helvetica,sans-Serif" font-size="14.00" fill="#000000">class = 0</text>
</g>
<!-- 7&#45;&gt;8 -->
<g id="edge8" class="edge">
<title>7&#45;&gt;8</title>
<path fill="none" stroke="#000000" d="M531.9532,-222.8796C531.0579,-214.6838 530.1081,-205.9891 529.1808,-197.5013"/>
<polygon fill="#000000" stroke="#000000" points="532.6315,-196.8588 528.0662,-187.2981 525.6729,-197.6191 532.6315,-196.8588"/>
</g>
<!-- 11 -->
<g id="node12" class="node">
<title>11</title>
<path fill="#f8decb" stroke="#000000" d="M749.5,-179.5C749.5,-179.5 637.5,-179.5 637.5,-179.5 631.5,-179.5 625.5,-173.5 625.5,-167.5 625.5,-167.5 625.5,-123.5 625.5,-123.5 625.5,-117.5 631.5,-111.5 637.5,-111.5 637.5,-111.5 749.5,-111.5 749.5,-111.5 755.5,-111.5 761.5,-117.5 761.5,-123.5 761.5,-123.5 761.5,-167.5 761.5,-167.5 761.5,-173.5 755.5,-179.5 749.5,-179.5"/>
<text text-anchor="middle" x="693.5" y="-164.3" font-family="Helvetica,sans-Serif" font-size="14.00" fill="#000000">gini = 0.488</text>
<text text-anchor="middle" x="693.5" y="-149.3" font-family="Helvetica,sans-Serif" font-size="14.00" fill="#000000">samples = 1745</text>
<text text-anchor="middle" x="693.5" y="-134.3" font-family="Helvetica,sans-Serif" font-size="14.00" fill="#000000">value = [1005, 740]</text>
<text text-anchor="middle" x="693.5" y="-119.3" font-family="Helvetica,sans-Serif" font-size="14.00" fill="#000000">class = 0</text>
</g>
<!-- 7&#45;&gt;11 -->
<g id="edge11" class="edge">
<title>7&#45;&gt;11</title>
<path fill="none" stroke="#000000" d="M591.411,-222.8796C607.2994,-210.8368 624.6091,-197.7167 640.3857,-185.7586"/>
<polygon fill="#000000" stroke="#000000" points="642.6253,-188.4529 648.4805,-179.623 638.3969,-182.8743 642.6253,-188.4529"/>
</g>
<!-- 9 -->
<g id="node10" class="node">
<title>9</title>
<path fill="#e89051" stroke="#000000" d="M496.5,-68C496.5,-68 384.5,-68 384.5,-68 378.5,-68 372.5,-62 372.5,-56 372.5,-56 372.5,-12 372.5,-12 372.5,-6 378.5,0 384.5,0 384.5,0 496.5,0 496.5,0 502.5,0 508.5,-6 508.5,-12 508.5,-12 508.5,-56 508.5,-56 508.5,-62 502.5,-68 496.5,-68"/>
<text text-anchor="middle" x="440.5" y="-52.8" font-family="Helvetica,sans-Serif" font-size="14.00" fill="#000000">gini = 0.19</text>
<text text-anchor="middle" x="440.5" y="-37.8" font-family="Helvetica,sans-Serif" font-size="14.00" fill="#000000">samples = 1975</text>
<text text-anchor="middle" x="440.5" y="-22.8" font-family="Helvetica,sans-Serif" font-size="14.00" fill="#000000">value = [1765, 210]</text>
<text text-anchor="middle" x="440.5" y="-7.8" font-family="Helvetica,sans-Serif" font-size="14.00" fill="#000000">class = 0</text>
</g>
<!-- 8&#45;&gt;9 -->
<g id="edge9" class="edge">
<title>8&#45;&gt;9</title>
<path fill="none" stroke="#000000" d="M492.5939,-103.9815C485.8892,-94.9747 478.7892,-85.4367 472.0597,-76.3965"/>
<polygon fill="#000000" stroke="#000000" points="474.7845,-74.1953 466.0057,-68.2637 469.1694,-78.3752 474.7845,-74.1953"/>
</g>
<!-- 10 -->
<g id="node11" class="node">
<title>10</title>
<path fill="#eeac7d" stroke="#000000" d="M650.5,-68C650.5,-68 538.5,-68 538.5,-68 532.5,-68 526.5,-62 526.5,-56 526.5,-56 526.5,-12 526.5,-12 526.5,-6 532.5,0 538.5,0 538.5,0 650.5,0 650.5,0 656.5,0 662.5,-6 662.5,-12 662.5,-12 662.5,-56 662.5,-56 662.5,-62 656.5,-68 650.5,-68"/>
<text text-anchor="middle" x="594.5" y="-52.8" font-family="Helvetica,sans-Serif" font-size="14.00" fill="#000000">gini = 0.381</text>
<text text-anchor="middle" x="594.5" y="-37.8" font-family="Helvetica,sans-Serif" font-size="14.00" fill="#000000">samples = 2029</text>
<text text-anchor="middle" x="594.5" y="-22.8" font-family="Helvetica,sans-Serif" font-size="14.00" fill="#000000">value = [1510, 519]</text>
<text text-anchor="middle" x="594.5" y="-7.8" font-family="Helvetica,sans-Serif" font-size="14.00" fill="#000000">class = 0</text>
</g>
<!-- 8&#45;&gt;10 -->
<g id="edge10" class="edge">
<title>8&#45;&gt;10</title>
<path fill="none" stroke="#000000" d="M549.9378,-103.9815C555.556,-95.1585 561.4988,-85.8258 567.1503,-76.9506"/>
<polygon fill="#000000" stroke="#000000" points="570.2629,-78.5787 572.6819,-68.2637 564.3584,-74.8188 570.2629,-78.5787"/>
</g>
</g>
</svg>
