<?xml version="1.0" encoding="UTF-8" standalone="no"?>
<!DOCTYPE svg PUBLIC "-//W3C//DTD SVG 1.1//EN"
 "http://www.w3.org/Graphics/SVG/1.1/DTD/svg11.dtd">
<!-- Generated by graphviz version 2.40.1 (20161225.0304)
 -->
<!-- Title: Tree Pages: 1 -->
<svg width="818pt" height="552pt"
 viewBox="0.00 0.00 817.50 552.00" xmlns="http://www.w3.org/2000/svg" xmlns:xlink="http://www.w3.org/1999/xlink">
<g id="graph0" class="graph" transform="scale(1 1) rotate(0) translate(4 548)">
<title>Tree</title>
<polygon fill="#ffffff" stroke="transparent" points="-4,4 -4,-548 813.5,-548 813.5,4 -4,4"/>
<!-- 0 -->
<g id="node1" class="node">
<title>0</title>
<path fill="#eca36e" stroke="#000000" d="M504,-544C504,-544 357,-544 357,-544 351,-544 345,-538 345,-532 345,-532 345,-473 345,-473 345,-467 351,-461 357,-461 357,-461 504,-461 504,-461 510,-461 516,-467 516,-473 516,-473 516,-532 516,-532 516,-538 510,-544 504,-544"/>
<text text-anchor="middle" x="430.5" y="-528.8" font-family="Helvetica,sans-Serif" font-size="14.00" fill="#000000">seasonal_vaccine &lt;= 0.5</text>
<text text-anchor="middle" x="430.5" y="-513.8" font-family="Helvetica,sans-Serif" font-size="14.00" fill="#000000">gini = 0.334</text>
<text text-anchor="middle" x="430.5" y="-498.8" font-family="Helvetica,sans-Serif" font-size="14.00" fill="#000000">samples = 17409</text>
<text text-anchor="middle" x="430.5" y="-483.8" font-family="Helvetica,sans-Serif" font-size="14.00" fill="#000000">value = [13717, 3692]</text>
<text text-anchor="middle" x="430.5" y="-468.8" font-family="Helvetica,sans-Serif" font-size="14.00" fill="#000000">class = 0</text>
</g>
<!-- 1 -->
<g id="node2" class="node">
<title>1</title>
<path fill="#e78a47" stroke="#000000" d="M399,-425C399,-425 256,-425 256,-425 250,-425 244,-419 244,-413 244,-413 244,-354 244,-354 244,-348 250,-342 256,-342 256,-342 399,-342 399,-342 405,-342 411,-348 411,-354 411,-354 411,-413 411,-413 411,-419 405,-425 399,-425"/>
<text text-anchor="middle" x="327.5" y="-409.8" font-family="Helvetica,sans-Serif" font-size="14.00" fill="#000000">health_insurance &lt;= 0.5</text>
<text text-anchor="middle" x="327.5" y="-394.8" font-family="Helvetica,sans-Serif" font-size="14.00" fill="#000000">gini = 0.125</text>
<text text-anchor="middle" x="327.5" y="-379.8" font-family="Helvetica,sans-Serif" font-size="14.00" fill="#000000">samples = 9300</text>
<text text-anchor="middle" x="327.5" y="-364.8" font-family="Helvetica,sans-Serif" font-size="14.00" fill="#000000">value = [8678, 622]</text>
<text text-anchor="middle" x="327.5" y="-349.8" font-family="Helvetica,sans-Serif" font-size="14.00" fill="#000000">class = 0</text>
</g>
<!-- 0&#45;&gt;1 -->
<g id="edge1" class="edge">
<title>0&#45;&gt;1</title>
<path fill="none" stroke="#000000" d="M394.4756,-460.8796C386.6802,-451.8733 378.3633,-442.2644 370.3356,-432.9897"/>
<polygon fill="#000000" stroke="#000000" points="372.8691,-430.5686 363.6782,-425.2981 367.5763,-435.1498 372.8691,-430.5686"/>
<text text-anchor="middle" x="361.881" y="-446.5334" font-family="Helvetica,sans-Serif" font-size="14.00" fill="#000000">True</text>
</g>
<!-- 6 -->
<g id="node7" class="node">
<title>6</title>
<path fill="#f5ceb2" stroke="#000000" d="M608.5,-425C608.5,-425 460.5,-425 460.5,-425 454.5,-425 448.5,-419 448.5,-413 448.5,-413 448.5,-354 448.5,-354 448.5,-348 454.5,-342 460.5,-342 460.5,-342 608.5,-342 608.5,-342 614.5,-342 620.5,-348 620.5,-354 620.5,-354 620.5,-413 620.5,-413 620.5,-419 614.5,-425 608.5,-425"/>
<text text-anchor="middle" x="534.5" y="-409.8" font-family="Helvetica,sans-Serif" font-size="14.00" fill="#000000">doctor_recc_h1n1 &lt;= 0.5</text>
<text text-anchor="middle" x="534.5" y="-394.8" font-family="Helvetica,sans-Serif" font-size="14.00" fill="#000000">gini = 0.471</text>
<text text-anchor="middle" x="534.5" y="-379.8" font-family="Helvetica,sans-Serif" font-size="14.00" fill="#000000">samples = 8109</text>
<text text-anchor="middle" x="534.5" y="-364.8" font-family="Helvetica,sans-Serif" font-size="14.00" fill="#000000">value = [5039, 3070]</text>
<text text-anchor="middle" x="534.5" y="-349.8" font-family="Helvetica,sans-Serif" font-size="14.00" fill="#000000">class = 0</text>
</g>
<!-- 0&#45;&gt;6 -->
<g id="edge6" class="edge">
<title>0&#45;&gt;6</title>
<path fill="none" stroke="#000000" d="M466.8742,-460.8796C474.7452,-451.8733 483.1429,-442.2644 491.2485,-432.9897"/>
<polygon fill="#000000" stroke="#000000" points="494.0254,-435.131 497.9706,-425.2981 488.7546,-430.5246 494.0254,-435.131"/>
<text text-anchor="middle" x="499.6484" y="-446.5417" font-family="Helvetica,sans-Serif" font-size="14.00" fill="#000000">False</text>
</g>
<!-- 2 -->
<g id="node3" class="node">
<title>2</title>
<path fill="#e68742" stroke="#000000" d="M229,-306C229,-306 12,-306 12,-306 6,-306 0,-300 0,-294 0,-294 0,-235 0,-235 0,-229 6,-223 12,-223 12,-223 229,-223 229,-223 235,-223 241,-229 241,-235 241,-235 241,-294 241,-294 241,-300 235,-306 229,-306"/>
<text text-anchor="middle" x="120.5" y="-290.8" font-family="Helvetica,sans-Serif" font-size="14.00" fill="#000000">opinion_h1n1_vacc_effective &lt;= 3.5</text>
<text text-anchor="middle" x="120.5" y="-275.8" font-family="Helvetica,sans-Serif" font-size="14.00" fill="#000000">gini = 0.084</text>
<text text-anchor="middle" x="120.5" y="-260.8" font-family="Helvetica,sans-Serif" font-size="14.00" fill="#000000">samples = 5519</text>
<text text-anchor="middle" x="120.5" y="-245.8" font-family="Helvetica,sans-Serif" font-size="14.00" fill="#000000">value = [5276, 243]</text>
<text text-anchor="middle" x="120.5" y="-230.8" font-family="Helvetica,sans-Serif" font-size="14.00" fill="#000000">class = 0</text>
</g>
<!-- 1&#45;&gt;2 -->
<g id="edge2" class="edge">
<title>1&#45;&gt;2</title>
<path fill="none" stroke="#000000" d="M255.1014,-341.8796C237.9257,-332.0056 219.4903,-321.4075 201.942,-311.3193"/>
<polygon fill="#000000" stroke="#000000" points="203.2716,-308.0466 192.8577,-306.0969 199.7828,-314.1152 203.2716,-308.0466"/>
</g>
<!-- 5 -->
<g id="node6" class="node">
<title>5</title>
<path fill="#e88f4f" stroke="#000000" d="M383.5,-298.5C383.5,-298.5 271.5,-298.5 271.5,-298.5 265.5,-298.5 259.5,-292.5 259.5,-286.5 259.5,-286.5 259.5,-242.5 259.5,-242.5 259.5,-236.5 265.5,-230.5 271.5,-230.5 271.5,-230.5 383.5,-230.5 383.5,-230.5 389.5,-230.5 395.5,-236.5 395.5,-242.5 395.5,-242.5 395.5,-286.5 395.5,-286.5 395.5,-292.5 389.5,-298.5 383.5,-298.5"/>
<text text-anchor="middle" x="327.5" y="-283.3" font-family="Helvetica,sans-Serif" font-size="14.00" fill="#000000">gini = 0.18</text>
<text text-anchor="middle" x="327.5" y="-268.3" font-family="Helvetica,sans-Serif" font-size="14.00" fill="#000000">samples = 3781</text>
<text text-anchor="middle" x="327.5" y="-253.3" font-family="Helvetica,sans-Serif" font-size="14.00" fill="#000000">value = [3402, 379]</text>
<text text-anchor="middle" x="327.5" y="-238.3" font-family="Helvetica,sans-Serif" font-size="14.00" fill="#000000">class = 0</text>
</g>
<!-- 1&#45;&gt;5 -->
<g id="edge5" class="edge">
<title>1&#45;&gt;5</title>
<path fill="none" stroke="#000000" d="M327.5,-341.8796C327.5,-331.2134 327.5,-319.7021 327.5,-308.9015"/>
<polygon fill="#000000" stroke="#000000" points="331.0001,-308.8149 327.5,-298.8149 324.0001,-308.815 331.0001,-308.8149"/>
</g>
<!-- 3 -->
<g id="node4" class="node">
<title>3</title>
<path fill="#e6843d" stroke="#000000" d="M134.5,-179.5C134.5,-179.5 30.5,-179.5 30.5,-179.5 24.5,-179.5 18.5,-173.5 18.5,-167.5 18.5,-167.5 18.5,-123.5 18.5,-123.5 18.5,-117.5 24.5,-111.5 30.5,-111.5 30.5,-111.5 134.5,-111.5 134.5,-111.5 140.5,-111.5 146.5,-117.5 146.5,-123.5 146.5,-123.5 146.5,-167.5 146.5,-167.5 146.5,-173.5 140.5,-179.5 134.5,-179.5"/>
<text text-anchor="middle" x="82.5" y="-164.3" font-family="Helvetica,sans-Serif" font-size="14.00" fill="#000000">gini = 0.039</text>
<text text-anchor="middle" x="82.5" y="-149.3" font-family="Helvetica,sans-Serif" font-size="14.00" fill="#000000">samples = 1947</text>
<text text-anchor="middle" x="82.5" y="-134.3" font-family="Helvetica,sans-Serif" font-size="14.00" fill="#000000">value = [1908, 39]</text>
<text text-anchor="middle" x="82.5" y="-119.3" font-family="Helvetica,sans-Serif" font-size="14.00" fill="#000000">class = 0</text>
</g>
<!-- 2&#45;&gt;3 -->
<g id="edge3" class="edge">
<title>2&#45;&gt;3</title>
<path fill="none" stroke="#000000" d="M107.2094,-222.8796C103.7683,-212.1034 100.0517,-200.4647 96.5721,-189.5677"/>
<polygon fill="#000000" stroke="#000000" points="99.8339,-188.2763 93.4577,-179.8149 93.1656,-190.4057 99.8339,-188.2763"/>
</g>
<!-- 4 -->
<g id="node5" class="node">
<title>4</title>
<path fill="#e78945" stroke="#000000" d="M288.5,-179.5C288.5,-179.5 176.5,-179.5 176.5,-179.5 170.5,-179.5 164.5,-173.5 164.5,-167.5 164.5,-167.5 164.5,-123.5 164.5,-123.5 164.5,-117.5 170.5,-111.5 176.5,-111.5 176.5,-111.5 288.5,-111.5 288.5,-111.5 294.5,-111.5 300.5,-117.5 300.5,-123.5 300.5,-123.5 300.5,-167.5 300.5,-167.5 300.5,-173.5 294.5,-179.5 288.5,-179.5"/>
<text text-anchor="middle" x="232.5" y="-164.3" font-family="Helvetica,sans-Serif" font-size="14.00" fill="#000000">gini = 0.108</text>
<text text-anchor="middle" x="232.5" y="-149.3" font-family="Helvetica,sans-Serif" font-size="14.00" fill="#000000">samples = 3572</text>
<text text-anchor="middle" x="232.5" y="-134.3" font-family="Helvetica,sans-Serif" font-size="14.00" fill="#000000">value = [3368, 204]</text>
<text text-anchor="middle" x="232.5" y="-119.3" font-family="Helvetica,sans-Serif" font-size="14.00" fill="#000000">class = 0</text>
</g>
<!-- 2&#45;&gt;4 -->
<g id="edge4" class="edge">
<title>2&#45;&gt;4</title>
<path fill="none" stroke="#000000" d="M159.6722,-222.8796C170.5389,-211.3337 182.3376,-198.7976 193.2109,-187.2446"/>
<polygon fill="#000000" stroke="#000000" points="195.8986,-189.4958 200.2036,-179.8149 190.8012,-184.6982 195.8986,-189.4958"/>
</g>
<!-- 7 -->
<g id="node8" class="node">
<title>7</title>
<path fill="#eeac7d" stroke="#000000" d="M643,-306C643,-306 426,-306 426,-306 420,-306 414,-300 414,-294 414,-294 414,-235 414,-235 414,-229 420,-223 426,-223 426,-223 643,-223 643,-223 649,-223 655,-229 655,-235 655,-235 655,-294 655,-294 655,-300 649,-306 643,-306"/>
<text text-anchor="middle" x="534.5" y="-290.8" font-family="Helvetica,sans-Serif" font-size="14.00" fill="#000000">opinion_h1n1_vacc_effective &lt;= 4.5</text>
<text text-anchor="middle" x="534.5" y="-275.8" font-family="Helvetica,sans-Serif" font-size="14.00" fill="#000000">gini = 0.38</text>
<text text-anchor="middle" x="534.5" y="-260.8" font-family="Helvetica,sans-Serif" font-size="14.00" fill="#000000">samples = 5749</text>
<text text-anchor="middle" x="534.5" y="-245.8" font-family="Helvetica,sans-Serif" font-size="14.00" fill="#000000">value = [4280, 1469]</text>
<text text-anchor="middle" x="534.5" y="-230.8" font-family="Helvetica,sans-Serif" font-size="14.00" fill="#000000">class = 0</text>
</g>
<!-- 6&#45;&gt;7 -->
<g id="edge7" class="edge">
<title>6&#45;&gt;7</title>
<path fill="none" stroke="#000000" d="M534.5,-341.8796C534.5,-333.6838 534.5,-324.9891 534.5,-316.5013"/>
<polygon fill="#000000" stroke="#000000" points="538.0001,-316.298 534.5,-306.2981 531.0001,-316.2981 538.0001,-316.298"/>
</g>
<!-- 12 -->
<g id="node13" class="node">
<title>12</title>
<path fill="#97cbf1" stroke="#000000" d="M797.5,-298.5C797.5,-298.5 685.5,-298.5 685.5,-298.5 679.5,-298.5 673.5,-292.5 673.5,-286.5 673.5,-286.5 673.5,-242.5 673.5,-242.5 673.5,-236.5 679.5,-230.5 685.5,-230.5 685.5,-230.5 797.5,-230.5 797.5,-230.5 803.5,-230.5 809.5,-236.5 809.5,-242.5 809.5,-242.5 809.5,-286.5 809.5,-286.5 809.5,-292.5 803.5,-298.5 797.5,-298.5"/>
<text text-anchor="middle" x="741.5" y="-283.3" font-family="Helvetica,sans-Serif" font-size="14.00" fill="#000000">gini = 0.436</text>
<text text-anchor="middle" x="741.5" y="-268.3" font-family="Helvetica,sans-Serif" font-size="14.00" fill="#000000">samples = 2360</text>
<text text-anchor="middle" x="741.5" y="-253.3" font-family="Helvetica,sans-Serif" font-size="14.00" fill="#000000">value = [759, 1601]</text>
<text text-anchor="middle" x="741.5" y="-238.3" font-family="Helvetica,sans-Serif" font-size="14.00" fill="#000000">class = 1</text>
</g>
<!-- 6&#45;&gt;12 -->
<g id="edge12" class="edge">
<title>6&#45;&gt;12</title>
<path fill="none" stroke="#000000" d="M606.8986,-341.8796C628.5196,-329.4501 652.1369,-315.873 673.4678,-303.6103"/>
<polygon fill="#000000" stroke="#000000" points="675.218,-306.6413 682.1431,-298.623 671.7292,-300.5727 675.218,-306.6413"/>
</g>
<!-- 8 -->
<g id="node9" class="node">
<title>8</title>
<path fill="#eb9d65" stroke="#000000" d="M540,-187C540,-187 397,-187 397,-187 391,-187 385,-181 385,-175 385,-175 385,-116 385,-116 385,-110 391,-104 397,-104 397,-104 540,-104 540,-104 546,-104 552,-110 552,-116 552,-116 552,-175 552,-175 552,-181 546,-187 540,-187"/>
<text text-anchor="middle" x="468.5" y="-171.8" font-family="Helvetica,sans-Serif" font-size="14.00" fill="#000000">health_insurance &lt;= 0.5</text>
<text text-anchor="middle" x="468.5" y="-156.8" font-family="Helvetica,sans-Serif" font-size="14.00" fill="#000000">gini = 0.298</text>
<text text-anchor="middle" x="468.5" y="-141.8" font-family="Helvetica,sans-Serif" font-size="14.00" fill="#000000">samples = 4004</text>
<text text-anchor="middle" x="468.5" y="-126.8" font-family="Helvetica,sans-Serif" font-size="14.00" fill="#000000">value = [3275, 729]</text>
<text text-anchor="middle" x="468.5" y="-111.8" font-family="Helvetica,sans-Serif" font-size="14.00" fill="#000000">class = 0</text>
</g>
<!-- 7&#45;&gt;8 -->
<g id="edge8" class="edge">
<title>7&#45;&gt;8</title>
<path fill="none" stroke="#000000" d="M511.4164,-222.8796C506.6211,-214.2335 501.5178,-205.0322 496.5662,-196.1042"/>
<polygon fill="#000000" stroke="#000000" points="499.5931,-194.3455 491.6821,-187.2981 493.4716,-197.7407 499.5931,-194.3455"/>
</g>
<!-- 11 -->
<g id="node12" class="node">
<title>11</title>
<path fill="#f8decb" stroke="#000000" d="M694.5,-179.5C694.5,-179.5 582.5,-179.5 582.5,-179.5 576.5,-179.5 570.5,-173.5 570.5,-167.5 570.5,-167.5 570.5,-123.5 570.5,-123.5 570.5,-117.5 576.5,-111.5 582.5,-111.5 582.5,-111.5 694.5,-111.5 694.5,-111.5 700.5,-111.5 706.5,-117.5 706.5,-123.5 706.5,-123.5 706.5,-167.5 706.5,-167.5 706.5,-173.5 700.5,-179.5 694.5,-179.5"/>
<text text-anchor="middle" x="638.5" y="-164.3" font-family="Helvetica,sans-Serif" font-size="14.00" fill="#000000">gini = 0.488</text>
<text text-anchor="middle" x="638.5" y="-149.3" font-family="Helvetica,sans-Serif" font-size="14.00" fill="#000000">samples = 1745</text>
<text text-anchor="middle" x="638.5" y="-134.3" font-family="Helvetica,sans-Serif" font-size="14.00" fill="#000000">value = [1005, 740]</text>
<text text-anchor="middle" x="638.5" y="-119.3" font-family="Helvetica,sans-Serif" font-size="14.00" fill="#000000">class = 0</text>
</g>
<!-- 7&#45;&gt;11 -->
<g id="edge11" class="edge">
<title>7&#45;&gt;11</title>
<path fill="none" stroke="#000000" d="M570.8742,-222.8796C580.8686,-211.4436 591.712,-199.0363 601.7286,-187.575"/>
<polygon fill="#000000" stroke="#000000" points="604.5653,-189.6479 608.5105,-179.8149 599.2945,-185.0414 604.5653,-189.6479"/>
</g>
<!-- 9 -->
<g id="node10" class="node">
<title>9</title>
<path fill="#e89051" stroke="#000000" d="M447.5,-68C447.5,-68 335.5,-68 335.5,-68 329.5,-68 323.5,-62 323.5,-56 323.5,-56 323.5,-12 323.5,-12 323.5,-6 329.5,0 335.5,0 335.5,0 447.5,0 447.5,0 453.5,0 459.5,-6 459.5,-12 459.5,-12 459.5,-56 459.5,-56 459.5,-62 453.5,-68 447.5,-68"/>
<text text-anchor="middle" x="391.5" y="-52.8" font-family="Helvetica,sans-Serif" font-size="14.00" fill="#000000">gini = 0.19</text>
<text text-anchor="middle" x="391.5" y="-37.8" font-family="Helvetica,sans-Serif" font-size="14.00" fill="#000000">samples = 1975</text>
<text text-anchor="middle" x="391.5" y="-22.8" font-family="Helvetica,sans-Serif" font-size="14.00" fill="#000000">value = [1765, 210]</text>
<text text-anchor="middle" x="391.5" y="-7.8" font-family="Helvetica,sans-Serif" font-size="14.00" fill="#000000">class = 0</text>
</g>
<!-- 8&#45;&gt;9 -->
<g id="edge9" class="edge">
<title>8&#45;&gt;9</title>
<path fill="none" stroke="#000000" d="M439.828,-103.9815C433.6715,-95.0666 427.1557,-85.6313 420.9695,-76.6734"/>
<polygon fill="#000000" stroke="#000000" points="423.7245,-74.5034 415.1619,-68.2637 417.9645,-78.4811 423.7245,-74.5034"/>
</g>
<!-- 10 -->
<g id="node11" class="node">
<title>10</title>
<path fill="#eeac7d" stroke="#000000" d="M601.5,-68C601.5,-68 489.5,-68 489.5,-68 483.5,-68 477.5,-62 477.5,-56 477.5,-56 477.5,-12 477.5,-12 477.5,-6 483.5,0 489.5,0 489.5,0 601.5,0 601.5,0 607.5,0 613.5,-6 613.5,-12 613.5,-12 613.5,-56 613.5,-56 613.5,-62 607.5,-68 601.5,-68"/>
<text text-anchor="middle" x="545.5" y="-52.8" font-family="Helvetica,sans-Serif" font-size="14.00" fill="#000000">gini = 0.381</text>
<text text-anchor="middle" x="545.5" y="-37.8" font-family="Helvetica,sans-Serif" font-size="14.00" fill="#000000">samples = 2029</text>
<text text-anchor="middle" x="545.5" y="-22.8" font-family="Helvetica,sans-Serif" font-size="14.00" fill="#000000">value = [1510, 519]</text>
<text text-anchor="middle" x="545.5" y="-7.8" font-family="Helvetica,sans-Serif" font-size="14.00" fill="#000000">class = 0</text>
</g>
<!-- 8&#45;&gt;10 -->
<g id="edge10" class="edge">
<title>8&#45;&gt;10</title>
<path fill="none" stroke="#000000" d="M497.172,-103.9815C503.3285,-95.0666 509.8443,-85.6313 516.0305,-76.6734"/>
<polygon fill="#000000" stroke="#000000" points="519.0355,-78.4811 521.8381,-68.2637 513.2755,-74.5034 519.0355,-78.4811"/>
</g>
</g>
</svg>
