<?xml version="1.0" encoding="UTF-8" standalone="no"?>
<!DOCTYPE svg PUBLIC "-//W3C//DTD SVG 1.1//EN"
 "http://www.w3.org/Graphics/SVG/1.1/DTD/svg11.dtd">
<!-- Generated by graphviz version 2.40.1 (20161225.0304)
 -->
<!-- Title: Tree Pages: 1 -->
<svg width="488pt" height="433pt"
 viewBox="0.00 0.00 488.00 433.00" xmlns="http://www.w3.org/2000/svg" xmlns:xlink="http://www.w3.org/1999/xlink">
<g id="graph0" class="graph" transform="scale(1 1) rotate(0) translate(4 429)">
<title>Tree</title>
<polygon fill="#ffffff" stroke="transparent" points="-4,4 -4,-429 484,-429 484,4 -4,4"/>
<!-- 0 -->
<g id="node1" class="node">
<title>0</title>
<path fill="#eca36e" stroke="#000000" d="M394,-425C394,-425 246,-425 246,-425 240,-425 234,-419 234,-413 234,-413 234,-354 234,-354 234,-348 240,-342 246,-342 246,-342 394,-342 394,-342 400,-342 406,-348 406,-354 406,-354 406,-413 406,-413 406,-419 400,-425 394,-425"/>
<text text-anchor="middle" x="320" y="-409.8" font-family="Helvetica,sans-Serif" font-size="14.00" fill="#000000">doctor_recc_h1n1 &lt;= 0.5</text>
<text text-anchor="middle" x="320" y="-394.8" font-family="Helvetica,sans-Serif" font-size="14.00" fill="#000000">gini = 0.334</text>
<text text-anchor="middle" x="320" y="-379.8" font-family="Helvetica,sans-Serif" font-size="14.00" fill="#000000">samples = 17409</text>
<text text-anchor="middle" x="320" y="-364.8" font-family="Helvetica,sans-Serif" font-size="14.00" fill="#000000">value = [13717, 3692]</text>
<text text-anchor="middle" x="320" y="-349.8" font-family="Helvetica,sans-Serif" font-size="14.00" fill="#000000">class = 0</text>
</g>
<!-- 1 -->
<g id="node2" class="node">
<title>1</title>
<path fill="#e99457" stroke="#000000" d="M305.5,-306C305.5,-306 158.5,-306 158.5,-306 152.5,-306 146.5,-300 146.5,-294 146.5,-294 146.5,-235 146.5,-235 146.5,-229 152.5,-223 158.5,-223 158.5,-223 305.5,-223 305.5,-223 311.5,-223 317.5,-229 317.5,-235 317.5,-235 317.5,-294 317.5,-294 317.5,-300 311.5,-306 305.5,-306"/>
<text text-anchor="middle" x="232" y="-290.8" font-family="Helvetica,sans-Serif" font-size="14.00" fill="#000000">seasonal_vaccine &lt;= 0.5</text>
<text text-anchor="middle" x="232" y="-275.8" font-family="Helvetica,sans-Serif" font-size="14.00" fill="#000000">gini = 0.228</text>
<text text-anchor="middle" x="232" y="-260.8" font-family="Helvetica,sans-Serif" font-size="14.00" fill="#000000">samples = 13857</text>
<text text-anchor="middle" x="232" y="-245.8" font-family="Helvetica,sans-Serif" font-size="14.00" fill="#000000">value = [12036, 1821]</text>
<text text-anchor="middle" x="232" y="-230.8" font-family="Helvetica,sans-Serif" font-size="14.00" fill="#000000">class = 0</text>
</g>
<!-- 0&#45;&gt;1 -->
<g id="edge1" class="edge">
<title>0&#45;&gt;1</title>
<path fill="none" stroke="#000000" d="M289.2219,-341.8796C282.6949,-333.0534 275.7401,-323.6485 269.0092,-314.5466"/>
<polygon fill="#000000" stroke="#000000" points="271.6695,-312.2574 262.9095,-306.2981 266.0412,-316.4195 271.6695,-312.2574"/>
<text text-anchor="middle" x="259.2068" y="-327.3224" font-family="Helvetica,sans-Serif" font-size="14.00" fill="#000000">True</text>
</g>
<!-- 6 -->
<g id="node7" class="node">
<title>6</title>
<path fill="#ebf5fc" stroke="#000000" d="M468,-298.5C468,-298.5 348,-298.5 348,-298.5 342,-298.5 336,-292.5 336,-286.5 336,-286.5 336,-242.5 336,-242.5 336,-236.5 342,-230.5 348,-230.5 348,-230.5 468,-230.5 468,-230.5 474,-230.5 480,-236.5 480,-242.5 480,-242.5 480,-286.5 480,-286.5 480,-292.5 474,-298.5 468,-298.5"/>
<text text-anchor="middle" x="408" y="-283.3" font-family="Helvetica,sans-Serif" font-size="14.00" fill="#000000">gini = 0.499</text>
<text text-anchor="middle" x="408" y="-268.3" font-family="Helvetica,sans-Serif" font-size="14.00" fill="#000000">samples = 3552</text>
<text text-anchor="middle" x="408" y="-253.3" font-family="Helvetica,sans-Serif" font-size="14.00" fill="#000000">value = [1681, 1871]</text>
<text text-anchor="middle" x="408" y="-238.3" font-family="Helvetica,sans-Serif" font-size="14.00" fill="#000000">class = 1</text>
</g>
<!-- 0&#45;&gt;6 -->
<g id="edge6" class="edge">
<title>0&#45;&gt;6</title>
<path fill="none" stroke="#000000" d="M350.7781,-341.8796C359.1536,-330.5536 368.2338,-318.2748 376.6411,-306.9058"/>
<polygon fill="#000000" stroke="#000000" points="379.4925,-308.9364 382.6242,-298.8149 373.8643,-304.7743 379.4925,-308.9364"/>
<text text-anchor="middle" x="386.3269" y="-319.8392" font-family="Helvetica,sans-Serif" font-size="14.00" fill="#000000">False</text>
</g>
<!-- 2 -->
<g id="node3" class="node">
<title>2</title>
<path fill="#e68742" stroke="#000000" d="M216.5,-187C216.5,-187 73.5,-187 73.5,-187 67.5,-187 61.5,-181 61.5,-175 61.5,-175 61.5,-116 61.5,-116 61.5,-110 67.5,-104 73.5,-104 73.5,-104 216.5,-104 216.5,-104 222.5,-104 228.5,-110 228.5,-116 228.5,-116 228.5,-175 228.5,-175 228.5,-181 222.5,-187 216.5,-187"/>
<text text-anchor="middle" x="145" y="-171.8" font-family="Helvetica,sans-Serif" font-size="14.00" fill="#000000">health_insurance &lt;= 0.5</text>
<text text-anchor="middle" x="145" y="-156.8" font-family="Helvetica,sans-Serif" font-size="14.00" fill="#000000">gini = 0.083</text>
<text text-anchor="middle" x="145" y="-141.8" font-family="Helvetica,sans-Serif" font-size="14.00" fill="#000000">samples = 8108</text>
<text text-anchor="middle" x="145" y="-126.8" font-family="Helvetica,sans-Serif" font-size="14.00" fill="#000000">value = [7756, 352]</text>
<text text-anchor="middle" x="145" y="-111.8" font-family="Helvetica,sans-Serif" font-size="14.00" fill="#000000">class = 0</text>
</g>
<!-- 1&#45;&gt;2 -->
<g id="edge2" class="edge">
<title>1&#45;&gt;2</title>
<path fill="none" stroke="#000000" d="M201.5716,-222.8796C195.1189,-214.0534 188.243,-204.6485 181.5887,-195.5466"/>
<polygon fill="#000000" stroke="#000000" points="184.2856,-193.3051 175.5583,-187.2981 178.6347,-197.4364 184.2856,-193.3051"/>
</g>
<!-- 5 -->
<g id="node6" class="node">
<title>5</title>
<path fill="#eeac7d" stroke="#000000" d="M379,-179.5C379,-179.5 259,-179.5 259,-179.5 253,-179.5 247,-173.5 247,-167.5 247,-167.5 247,-123.5 247,-123.5 247,-117.5 253,-111.5 259,-111.5 259,-111.5 379,-111.5 379,-111.5 385,-111.5 391,-117.5 391,-123.5 391,-123.5 391,-167.5 391,-167.5 391,-173.5 385,-179.5 379,-179.5"/>
<text text-anchor="middle" x="319" y="-164.3" font-family="Helvetica,sans-Serif" font-size="14.00" fill="#000000">gini = 0.38</text>
<text text-anchor="middle" x="319" y="-149.3" font-family="Helvetica,sans-Serif" font-size="14.00" fill="#000000">samples = 5749</text>
<text text-anchor="middle" x="319" y="-134.3" font-family="Helvetica,sans-Serif" font-size="14.00" fill="#000000">value = [4280, 1469]</text>
<text text-anchor="middle" x="319" y="-119.3" font-family="Helvetica,sans-Serif" font-size="14.00" fill="#000000">class = 0</text>
</g>
<!-- 1&#45;&gt;5 -->
<g id="edge5" class="edge">
<title>1&#45;&gt;5</title>
<path fill="none" stroke="#000000" d="M262.4284,-222.8796C270.7087,-211.5536 279.6857,-199.2748 287.9974,-187.9058"/>
<polygon fill="#000000" stroke="#000000" points="290.8361,-189.9533 293.9126,-179.8149 285.1853,-185.822 290.8361,-189.9533"/>
</g>
<!-- 3 -->
<g id="node4" class="node">
<title>3</title>
<path fill="#e6853f" stroke="#000000" d="M124,-68C124,-68 12,-68 12,-68 6,-68 0,-62 0,-56 0,-56 0,-12 0,-12 0,-6 6,0 12,0 12,0 124,0 124,0 130,0 136,-6 136,-12 136,-12 136,-56 136,-56 136,-62 130,-68 124,-68"/>
<text text-anchor="middle" x="68" y="-52.8" font-family="Helvetica,sans-Serif" font-size="14.00" fill="#000000">gini = 0.054</text>
<text text-anchor="middle" x="68" y="-37.8" font-family="Helvetica,sans-Serif" font-size="14.00" fill="#000000">samples = 4940</text>
<text text-anchor="middle" x="68" y="-22.8" font-family="Helvetica,sans-Serif" font-size="14.00" fill="#000000">value = [4803, 137]</text>
<text text-anchor="middle" x="68" y="-7.8" font-family="Helvetica,sans-Serif" font-size="14.00" fill="#000000">class = 0</text>
</g>
<!-- 2&#45;&gt;3 -->
<g id="edge3" class="edge">
<title>2&#45;&gt;3</title>
<path fill="none" stroke="#000000" d="M116.328,-103.9815C110.1715,-95.0666 103.6557,-85.6313 97.4695,-76.6734"/>
<polygon fill="#000000" stroke="#000000" points="100.2245,-74.5034 91.6619,-68.2637 94.4645,-78.4811 100.2245,-74.5034"/>
</g>
<!-- 4 -->
<g id="node5" class="node">
<title>4</title>
<path fill="#e78a47" stroke="#000000" d="M278,-68C278,-68 166,-68 166,-68 160,-68 154,-62 154,-56 154,-56 154,-12 154,-12 154,-6 160,0 166,0 166,0 278,0 278,0 284,0 290,-6 290,-12 290,-12 290,-56 290,-56 290,-62 284,-68 278,-68"/>
<text text-anchor="middle" x="222" y="-52.8" font-family="Helvetica,sans-Serif" font-size="14.00" fill="#000000">gini = 0.127</text>
<text text-anchor="middle" x="222" y="-37.8" font-family="Helvetica,sans-Serif" font-size="14.00" fill="#000000">samples = 3168</text>
<text text-anchor="middle" x="222" y="-22.8" font-family="Helvetica,sans-Serif" font-size="14.00" fill="#000000">value = [2953, 215]</text>
<text text-anchor="middle" x="222" y="-7.8" font-family="Helvetica,sans-Serif" font-size="14.00" fill="#000000">class = 0</text>
</g>
<!-- 2&#45;&gt;4 -->
<g id="edge4" class="edge">
<title>2&#45;&gt;4</title>
<path fill="none" stroke="#000000" d="M173.672,-103.9815C179.8285,-95.0666 186.3443,-85.6313 192.5305,-76.6734"/>
<polygon fill="#000000" stroke="#000000" points="195.5355,-78.4811 198.3381,-68.2637 189.7755,-74.5034 195.5355,-78.4811"/>
</g>
</g>
</svg>
