<?xml version="1.0" encoding="UTF-8" standalone="no"?>
<!DOCTYPE svg PUBLIC "-//W3C//DTD SVG 1.1//EN"
 "http://www.w3.org/Graphics/SVG/1.1/DTD/svg11.dtd">
<!-- Generated by graphviz version 2.40.1 (20161225.0304)
 -->
<!-- Title: Tree Pages: 1 -->
<svg width="834pt" height="552pt"
 viewBox="0.00 0.00 833.50 552.00" xmlns="http://www.w3.org/2000/svg" xmlns:xlink="http://www.w3.org/1999/xlink">
<g id="graph0" class="graph" transform="scale(1 1) rotate(0) translate(4 548)">
<title>Tree</title>
<polygon fill="#ffffff" stroke="transparent" points="-4,4 -4,-548 829.5,-548 829.5,4 -4,4"/>
<!-- 0 -->
<g id="node1" class="node">
<title>0</title>
<path fill="#eca36e" stroke="#000000" d="M509,-544C509,-544 362,-544 362,-544 356,-544 350,-538 350,-532 350,-532 350,-473 350,-473 350,-467 356,-461 362,-461 362,-461 509,-461 509,-461 515,-461 521,-467 521,-473 521,-473 521,-532 521,-532 521,-538 515,-544 509,-544"/>
<text text-anchor="middle" x="435.5" y="-528.8" font-family="Helvetica,sans-Serif" font-size="14.00" fill="#000000">seasonal_vaccine &lt;= 0.5</text>
<text text-anchor="middle" x="435.5" y="-513.8" font-family="Helvetica,sans-Serif" font-size="14.00" fill="#000000">gini = 0.334</text>
<text text-anchor="middle" x="435.5" y="-498.8" font-family="Helvetica,sans-Serif" font-size="14.00" fill="#000000">samples = 17409</text>
<text text-anchor="middle" x="435.5" y="-483.8" font-family="Helvetica,sans-Serif" font-size="14.00" fill="#000000">value = [13717, 3692]</text>
<text text-anchor="middle" x="435.5" y="-468.8" font-family="Helvetica,sans-Serif" font-size="14.00" fill="#000000">class = 0</text>
</g>
<!-- 1 -->
<g id="node2" class="node">
<title>1</title>
<path fill="#e78a47" stroke="#000000" d="M397.5,-425C397.5,-425 247.5,-425 247.5,-425 241.5,-425 235.5,-419 235.5,-413 235.5,-413 235.5,-354 235.5,-354 235.5,-348 241.5,-342 247.5,-342 247.5,-342 397.5,-342 397.5,-342 403.5,-342 409.5,-348 409.5,-354 409.5,-354 409.5,-413 409.5,-413 409.5,-419 403.5,-425 397.5,-425"/>
<text text-anchor="middle" x="322.5" y="-409.8" font-family="Helvetica,sans-Serif" font-size="14.00" fill="#000000">opinion_h1n1_risk &lt;= 3.5</text>
<text text-anchor="middle" x="322.5" y="-394.8" font-family="Helvetica,sans-Serif" font-size="14.00" fill="#000000">gini = 0.125</text>
<text text-anchor="middle" x="322.5" y="-379.8" font-family="Helvetica,sans-Serif" font-size="14.00" fill="#000000">samples = 9300</text>
<text text-anchor="middle" x="322.5" y="-364.8" font-family="Helvetica,sans-Serif" font-size="14.00" fill="#000000">value = [8678, 622]</text>
<text text-anchor="middle" x="322.5" y="-349.8" font-family="Helvetica,sans-Serif" font-size="14.00" fill="#000000">class = 0</text>
</g>
<!-- 0&#45;&gt;1 -->
<g id="edge1" class="edge">
<title>0&#45;&gt;1</title>
<path fill="none" stroke="#000000" d="M395.9781,-460.8796C387.3403,-451.7832 378.119,-442.0722 369.2303,-432.7116"/>
<polygon fill="#000000" stroke="#000000" points="371.6146,-430.1395 362.1906,-425.2981 366.5385,-434.9597 371.6146,-430.1395"/>
<text text-anchor="middle" x="361.5443" y="-446.5897" font-family="Helvetica,sans-Serif" font-size="14.00" fill="#000000">True</text>
</g>
<!-- 8 -->
<g id="node9" class="node">
<title>8</title>
<path fill="#f5ceb2" stroke="#000000" d="M657,-425C657,-425 440,-425 440,-425 434,-425 428,-419 428,-413 428,-413 428,-354 428,-354 428,-348 434,-342 440,-342 440,-342 657,-342 657,-342 663,-342 669,-348 669,-354 669,-354 669,-413 669,-413 669,-419 663,-425 657,-425"/>
<text text-anchor="middle" x="548.5" y="-409.8" font-family="Helvetica,sans-Serif" font-size="14.00" fill="#000000">opinion_h1n1_vacc_effective &lt;= 4.5</text>
<text text-anchor="middle" x="548.5" y="-394.8" font-family="Helvetica,sans-Serif" font-size="14.00" fill="#000000">gini = 0.471</text>
<text text-anchor="middle" x="548.5" y="-379.8" font-family="Helvetica,sans-Serif" font-size="14.00" fill="#000000">samples = 8109</text>
<text text-anchor="middle" x="548.5" y="-364.8" font-family="Helvetica,sans-Serif" font-size="14.00" fill="#000000">value = [5039, 3070]</text>
<text text-anchor="middle" x="548.5" y="-349.8" font-family="Helvetica,sans-Serif" font-size="14.00" fill="#000000">class = 0</text>
</g>
<!-- 0&#45;&gt;8 -->
<g id="edge8" class="edge">
<title>0&#45;&gt;8</title>
<path fill="none" stroke="#000000" d="M475.0219,-460.8796C483.6597,-451.7832 492.881,-442.0722 501.7697,-432.7116"/>
<polygon fill="#000000" stroke="#000000" points="504.4615,-434.9597 508.8094,-425.2981 499.3854,-430.1395 504.4615,-434.9597"/>
<text text-anchor="middle" x="509.4557" y="-446.5897" font-family="Helvetica,sans-Serif" font-size="14.00" fill="#000000">False</text>
</g>
<!-- 2 -->
<g id="node3" class="node">
<title>2</title>
<path fill="#e68742" stroke="#000000" d="M229,-306C229,-306 12,-306 12,-306 6,-306 0,-300 0,-294 0,-294 0,-235 0,-235 0,-229 6,-223 12,-223 12,-223 229,-223 229,-223 235,-223 241,-229 241,-235 241,-235 241,-294 241,-294 241,-300 235,-306 229,-306"/>
<text text-anchor="middle" x="120.5" y="-290.8" font-family="Helvetica,sans-Serif" font-size="14.00" fill="#000000">opinion_h1n1_vacc_effective &lt;= 3.5</text>
<text text-anchor="middle" x="120.5" y="-275.8" font-family="Helvetica,sans-Serif" font-size="14.00" fill="#000000">gini = 0.084</text>
<text text-anchor="middle" x="120.5" y="-260.8" font-family="Helvetica,sans-Serif" font-size="14.00" fill="#000000">samples = 7542</text>
<text text-anchor="middle" x="120.5" y="-245.8" font-family="Helvetica,sans-Serif" font-size="14.00" fill="#000000">value = [7209, 333]</text>
<text text-anchor="middle" x="120.5" y="-230.8" font-family="Helvetica,sans-Serif" font-size="14.00" fill="#000000">class = 0</text>
</g>
<!-- 1&#45;&gt;2 -->
<g id="edge2" class="edge">
<title>1&#45;&gt;2</title>
<path fill="none" stroke="#000000" d="M251.8502,-341.8796C235.0894,-332.0056 217.0992,-321.4075 199.9748,-311.3193"/>
<polygon fill="#000000" stroke="#000000" points="201.5025,-308.1571 191.1099,-306.0969 197.9494,-314.1884 201.5025,-308.1571"/>
</g>
<!-- 7 -->
<g id="node8" class="node">
<title>7</title>
<path fill="#ea9a60" stroke="#000000" d="M383.5,-298.5C383.5,-298.5 271.5,-298.5 271.5,-298.5 265.5,-298.5 259.5,-292.5 259.5,-286.5 259.5,-286.5 259.5,-242.5 259.5,-242.5 259.5,-236.5 265.5,-230.5 271.5,-230.5 271.5,-230.5 383.5,-230.5 383.5,-230.5 389.5,-230.5 395.5,-236.5 395.5,-242.5 395.5,-242.5 395.5,-286.5 395.5,-286.5 395.5,-292.5 389.5,-298.5 383.5,-298.5"/>
<text text-anchor="middle" x="327.5" y="-283.3" font-family="Helvetica,sans-Serif" font-size="14.00" fill="#000000">gini = 0.275</text>
<text text-anchor="middle" x="327.5" y="-268.3" font-family="Helvetica,sans-Serif" font-size="14.00" fill="#000000">samples = 1758</text>
<text text-anchor="middle" x="327.5" y="-253.3" font-family="Helvetica,sans-Serif" font-size="14.00" fill="#000000">value = [1469, 289]</text>
<text text-anchor="middle" x="327.5" y="-238.3" font-family="Helvetica,sans-Serif" font-size="14.00" fill="#000000">class = 0</text>
</g>
<!-- 1&#45;&gt;7 -->
<g id="edge7" class="edge">
<title>1&#45;&gt;7</title>
<path fill="none" stroke="#000000" d="M324.2488,-341.8796C324.6969,-331.2134 325.1806,-319.7021 325.6344,-308.9015"/>
<polygon fill="#000000" stroke="#000000" points="329.1352,-308.9531 326.0582,-298.8149 322.1414,-308.6592 329.1352,-308.9531"/>
</g>
<!-- 3 -->
<g id="node4" class="node">
<title>3</title>
<path fill="#e6843d" stroke="#000000" d="M134.5,-179.5C134.5,-179.5 30.5,-179.5 30.5,-179.5 24.5,-179.5 18.5,-173.5 18.5,-167.5 18.5,-167.5 18.5,-123.5 18.5,-123.5 18.5,-117.5 24.5,-111.5 30.5,-111.5 30.5,-111.5 134.5,-111.5 134.5,-111.5 140.5,-111.5 146.5,-117.5 146.5,-123.5 146.5,-123.5 146.5,-167.5 146.5,-167.5 146.5,-173.5 140.5,-179.5 134.5,-179.5"/>
<text text-anchor="middle" x="82.5" y="-164.3" font-family="Helvetica,sans-Serif" font-size="14.00" fill="#000000">gini = 0.042</text>
<text text-anchor="middle" x="82.5" y="-149.3" font-family="Helvetica,sans-Serif" font-size="14.00" fill="#000000">samples = 2735</text>
<text text-anchor="middle" x="82.5" y="-134.3" font-family="Helvetica,sans-Serif" font-size="14.00" fill="#000000">value = [2676, 59]</text>
<text text-anchor="middle" x="82.5" y="-119.3" font-family="Helvetica,sans-Serif" font-size="14.00" fill="#000000">class = 0</text>
</g>
<!-- 2&#45;&gt;3 -->
<g id="edge3" class="edge">
<title>2&#45;&gt;3</title>
<path fill="none" stroke="#000000" d="M107.2094,-222.8796C103.7683,-212.1034 100.0517,-200.4647 96.5721,-189.5677"/>
<polygon fill="#000000" stroke="#000000" points="99.8339,-188.2763 93.4577,-179.8149 93.1656,-190.4057 99.8339,-188.2763"/>
</g>
<!-- 4 -->
<g id="node5" class="node">
<title>4</title>
<path fill="#e78945" stroke="#000000" d="M320,-187C320,-187 177,-187 177,-187 171,-187 165,-181 165,-175 165,-175 165,-116 165,-116 165,-110 171,-104 177,-104 177,-104 320,-104 320,-104 326,-104 332,-110 332,-116 332,-116 332,-175 332,-175 332,-181 326,-187 320,-187"/>
<text text-anchor="middle" x="248.5" y="-171.8" font-family="Helvetica,sans-Serif" font-size="14.00" fill="#000000">health_insurance &lt;= 0.5</text>
<text text-anchor="middle" x="248.5" y="-156.8" font-family="Helvetica,sans-Serif" font-size="14.00" fill="#000000">gini = 0.108</text>
<text text-anchor="middle" x="248.5" y="-141.8" font-family="Helvetica,sans-Serif" font-size="14.00" fill="#000000">samples = 4807</text>
<text text-anchor="middle" x="248.5" y="-126.8" font-family="Helvetica,sans-Serif" font-size="14.00" fill="#000000">value = [4533, 274]</text>
<text text-anchor="middle" x="248.5" y="-111.8" font-family="Helvetica,sans-Serif" font-size="14.00" fill="#000000">class = 0</text>
</g>
<!-- 2&#45;&gt;4 -->
<g id="edge4" class="edge">
<title>2&#45;&gt;4</title>
<path fill="none" stroke="#000000" d="M165.2682,-222.8796C175.2463,-213.6031 185.9119,-203.6874 196.1642,-194.1559"/>
<polygon fill="#000000" stroke="#000000" points="198.6,-196.6704 203.5407,-187.2981 193.8337,-191.5436 198.6,-196.6704"/>
</g>
<!-- 5 -->
<g id="node6" class="node">
<title>5</title>
<path fill="#e68641" stroke="#000000" d="M227.5,-68C227.5,-68 115.5,-68 115.5,-68 109.5,-68 103.5,-62 103.5,-56 103.5,-56 103.5,-12 103.5,-12 103.5,-6 109.5,0 115.5,0 115.5,0 227.5,0 227.5,0 233.5,0 239.5,-6 239.5,-12 239.5,-12 239.5,-56 239.5,-56 239.5,-62 233.5,-68 227.5,-68"/>
<text text-anchor="middle" x="171.5" y="-52.8" font-family="Helvetica,sans-Serif" font-size="14.00" fill="#000000">gini = 0.073</text>
<text text-anchor="middle" x="171.5" y="-37.8" font-family="Helvetica,sans-Serif" font-size="14.00" fill="#000000">samples = 2662</text>
<text text-anchor="middle" x="171.5" y="-22.8" font-family="Helvetica,sans-Serif" font-size="14.00" fill="#000000">value = [2561, 101]</text>
<text text-anchor="middle" x="171.5" y="-7.8" font-family="Helvetica,sans-Serif" font-size="14.00" fill="#000000">class = 0</text>
</g>
<!-- 4&#45;&gt;5 -->
<g id="edge5" class="edge">
<title>4&#45;&gt;5</title>
<path fill="none" stroke="#000000" d="M219.828,-103.9815C213.6715,-95.0666 207.1557,-85.6313 200.9695,-76.6734"/>
<polygon fill="#000000" stroke="#000000" points="203.7245,-74.5034 195.1619,-68.2637 197.9645,-78.4811 203.7245,-74.5034"/>
</g>
<!-- 6 -->
<g id="node7" class="node">
<title>6</title>
<path fill="#e78c4a" stroke="#000000" d="M381.5,-68C381.5,-68 269.5,-68 269.5,-68 263.5,-68 257.5,-62 257.5,-56 257.5,-56 257.5,-12 257.5,-12 257.5,-6 263.5,0 269.5,0 269.5,0 381.5,0 381.5,0 387.5,0 393.5,-6 393.5,-12 393.5,-12 393.5,-56 393.5,-56 393.5,-62 387.5,-68 381.5,-68"/>
<text text-anchor="middle" x="325.5" y="-52.8" font-family="Helvetica,sans-Serif" font-size="14.00" fill="#000000">gini = 0.148</text>
<text text-anchor="middle" x="325.5" y="-37.8" font-family="Helvetica,sans-Serif" font-size="14.00" fill="#000000">samples = 2145</text>
<text text-anchor="middle" x="325.5" y="-22.8" font-family="Helvetica,sans-Serif" font-size="14.00" fill="#000000">value = [1972, 173]</text>
<text text-anchor="middle" x="325.5" y="-7.8" font-family="Helvetica,sans-Serif" font-size="14.00" fill="#000000">class = 0</text>
</g>
<!-- 4&#45;&gt;6 -->
<g id="edge6" class="edge">
<title>4&#45;&gt;6</title>
<path fill="none" stroke="#000000" d="M277.172,-103.9815C283.3285,-95.0666 289.8443,-85.6313 296.0305,-76.6734"/>
<polygon fill="#000000" stroke="#000000" points="299.0355,-78.4811 301.8381,-68.2637 293.2755,-74.5034 299.0355,-78.4811"/>
</g>
<!-- 9 -->
<g id="node10" class="node">
<title>9</title>
<path fill="#efb185" stroke="#000000" d="M651,-306C651,-306 436,-306 436,-306 430,-306 424,-300 424,-294 424,-294 424,-235 424,-235 424,-229 430,-223 436,-223 436,-223 651,-223 651,-223 657,-223 663,-229 663,-235 663,-235 663,-294 663,-294 663,-300 657,-306 651,-306"/>
<text text-anchor="middle" x="543.5" y="-290.8" font-family="Helvetica,sans-Serif" font-size="14.00" fill="#000000">opinion_seas_vacc_effective &lt;= 4.5</text>
<text text-anchor="middle" x="543.5" y="-275.8" font-family="Helvetica,sans-Serif" font-size="14.00" fill="#000000">gini = 0.401</text>
<text text-anchor="middle" x="543.5" y="-260.8" font-family="Helvetica,sans-Serif" font-size="14.00" fill="#000000">samples = 5222</text>
<text text-anchor="middle" x="543.5" y="-245.8" font-family="Helvetica,sans-Serif" font-size="14.00" fill="#000000">value = [3773, 1449]</text>
<text text-anchor="middle" x="543.5" y="-230.8" font-family="Helvetica,sans-Serif" font-size="14.00" fill="#000000">class = 0</text>
</g>
<!-- 8&#45;&gt;9 -->
<g id="edge9" class="edge">
<title>8&#45;&gt;9</title>
<path fill="none" stroke="#000000" d="M546.7512,-341.8796C546.4069,-333.6838 546.0416,-324.9891 545.6849,-316.5013"/>
<polygon fill="#000000" stroke="#000000" points="549.173,-316.1423 545.2562,-306.2981 542.1792,-316.4362 549.173,-316.1423"/>
</g>
<!-- 12 -->
<g id="node13" class="node">
<title>12</title>
<path fill="#d4eaf9" stroke="#000000" d="M813.5,-298.5C813.5,-298.5 693.5,-298.5 693.5,-298.5 687.5,-298.5 681.5,-292.5 681.5,-286.5 681.5,-286.5 681.5,-242.5 681.5,-242.5 681.5,-236.5 687.5,-230.5 693.5,-230.5 693.5,-230.5 813.5,-230.5 813.5,-230.5 819.5,-230.5 825.5,-236.5 825.5,-242.5 825.5,-242.5 825.5,-286.5 825.5,-286.5 825.5,-292.5 819.5,-298.5 813.5,-298.5"/>
<text text-anchor="middle" x="753.5" y="-283.3" font-family="Helvetica,sans-Serif" font-size="14.00" fill="#000000">gini = 0.492</text>
<text text-anchor="middle" x="753.5" y="-268.3" font-family="Helvetica,sans-Serif" font-size="14.00" fill="#000000">samples = 2887</text>
<text text-anchor="middle" x="753.5" y="-253.3" font-family="Helvetica,sans-Serif" font-size="14.00" fill="#000000">value = [1266, 1621]</text>
<text text-anchor="middle" x="753.5" y="-238.3" font-family="Helvetica,sans-Serif" font-size="14.00" fill="#000000">class = 1</text>
</g>
<!-- 8&#45;&gt;12 -->
<g id="edge12" class="edge">
<title>8&#45;&gt;12</title>
<path fill="none" stroke="#000000" d="M620.1991,-341.8796C641.5161,-329.5053 664.7924,-315.9937 685.8433,-303.7739"/>
<polygon fill="#000000" stroke="#000000" points="687.8253,-306.6704 694.7166,-298.623 684.311,-300.6164 687.8253,-306.6704"/>
</g>
<!-- 10 -->
<g id="node11" class="node">
<title>10</title>
<path fill="#f2be99" stroke="#000000" d="M531.5,-179.5C531.5,-179.5 419.5,-179.5 419.5,-179.5 413.5,-179.5 407.5,-173.5 407.5,-167.5 407.5,-167.5 407.5,-123.5 407.5,-123.5 407.5,-117.5 413.5,-111.5 419.5,-111.5 419.5,-111.5 531.5,-111.5 531.5,-111.5 537.5,-111.5 543.5,-117.5 543.5,-123.5 543.5,-123.5 543.5,-167.5 543.5,-167.5 543.5,-173.5 537.5,-179.5 531.5,-179.5"/>
<text text-anchor="middle" x="475.5" y="-164.3" font-family="Helvetica,sans-Serif" font-size="14.00" fill="#000000">gini = 0.44</text>
<text text-anchor="middle" x="475.5" y="-149.3" font-family="Helvetica,sans-Serif" font-size="14.00" fill="#000000">samples = 2967</text>
<text text-anchor="middle" x="475.5" y="-134.3" font-family="Helvetica,sans-Serif" font-size="14.00" fill="#000000">value = [1996, 971]</text>
<text text-anchor="middle" x="475.5" y="-119.3" font-family="Helvetica,sans-Serif" font-size="14.00" fill="#000000">class = 0</text>
</g>
<!-- 9&#45;&gt;10 -->
<g id="edge10" class="edge">
<title>9&#45;&gt;10</title>
<path fill="none" stroke="#000000" d="M519.7169,-222.8796C513.3706,-211.7735 506.5007,-199.7513 500.1109,-188.5691"/>
<polygon fill="#000000" stroke="#000000" points="503.1088,-186.7609 495.1085,-179.8149 497.0311,-190.2339 503.1088,-186.7609"/>
</g>
<!-- 11 -->
<g id="node12" class="node">
<title>11</title>
<path fill="#eca36e" stroke="#000000" d="M685.5,-179.5C685.5,-179.5 573.5,-179.5 573.5,-179.5 567.5,-179.5 561.5,-173.5 561.5,-167.5 561.5,-167.5 561.5,-123.5 561.5,-123.5 561.5,-117.5 567.5,-111.5 573.5,-111.5 573.5,-111.5 685.5,-111.5 685.5,-111.5 691.5,-111.5 697.5,-117.5 697.5,-123.5 697.5,-123.5 697.5,-167.5 697.5,-167.5 697.5,-173.5 691.5,-179.5 685.5,-179.5"/>
<text text-anchor="middle" x="629.5" y="-164.3" font-family="Helvetica,sans-Serif" font-size="14.00" fill="#000000">gini = 0.334</text>
<text text-anchor="middle" x="629.5" y="-149.3" font-family="Helvetica,sans-Serif" font-size="14.00" fill="#000000">samples = 2255</text>
<text text-anchor="middle" x="629.5" y="-134.3" font-family="Helvetica,sans-Serif" font-size="14.00" fill="#000000">value = [1777, 478]</text>
<text text-anchor="middle" x="629.5" y="-119.3" font-family="Helvetica,sans-Serif" font-size="14.00" fill="#000000">class = 0</text>
</g>
<!-- 9&#45;&gt;11 -->
<g id="edge11" class="edge">
<title>9&#45;&gt;11</title>
<path fill="none" stroke="#000000" d="M573.5786,-222.8796C581.6843,-211.6636 590.4653,-199.5131 598.6143,-188.2372"/>
<polygon fill="#000000" stroke="#000000" points="601.6803,-189.9701 604.701,-179.8149 596.0068,-185.8698 601.6803,-189.9701"/>
</g>
</g>
</svg>
